# xmcd
#
# Track frame offsets:
#	150
#	19071
#	35120
#	47564
#	60891
#	90536
#	105881
#	118878
#	132986
#	145982
#	160033
#	172075
#	184797
#	198774
#	211133
#	223457
#	236223
#	247726
#
# Disc length: 3490 seconds
#
# Revision: 2
# Processed by: cddbd v1.5.2PL0 Copyright (c) Steve Scherf et al.
# Submitted via: audiograbber 1.83.01
#
DISCID=fb0da012
DTITLE=100 Proof Aged In Soul - Somebody's Been Sleeping In My Bed... Plus and 10
DTITLE=0 Proof Aged In Soul... Plus  [CD1)
DYEAR=2009
DGENRE=Oldies
TTITLE0=Somebody's Been Sleeping In My Bed
TTITLE1=Love Is Sweeter (The Second Time Around)
TTITLE2=One Man's Leftovers (Is Another Man's Feast)
TTITLE3=I've Come To Save You
TTITLE4=Ain't That Loving You (For More Reasons Than One)
TTITLE5=Not Enough Love To Satisfy
TTITLE6=Age Ain't Nothing But A Number
TTITLE7=She's Not Just Another Woman
TTITLE8=Too Many Cooks (Spoil The Soup)
TTITLE9=I Just Can't Sit And Wait
TTITLE10=Backtrack
TTITLE11=Somebody's Been Sleeping In My Bed  (US Single Version)
TTITLE12=She's Not Just Another Woman  (Single Version)
TTITLE13=If I Could See The Light In The Window  (Version 1)
TTITLE14=Driveway
TTITLE15=90 Days Freeze (On Her Love)
TTITLE16=Breakdown  (Single Version)
TTITLE17=Somebody's Been Sleeping In My Bed  (UK Single Version)
EXTD=
EXTT0=
EXTT1=
EXTT2=
EXTT3=
EXTT4=
EXTT5=
EXTT6=
EXTT7=
EXTT8=
EXTT9=
EXTT10=
EXTT11=
EXTT12=
EXTT13=
EXTT14=
EXTT15=
EXTT16=
EXTT17=
PLAYORDER=
